PathFileType	4	(X/Y/Z)	..\data\2014050\dynamic\2014050_C4_04.trc
DataRate	CameraRate	NumFrames	NumMarkers	Units	OrigDataRate	OrigDataStartFrame	OrigNumFrames
100.000000	100.000000	4	52	mm	100.000000	61	165
Frame#	Time	L_IAS			L_IPS			R_IPS			R_IAS			L_FTC			L_FLE			L_FME			L_FAX			L_TTC			L_FAL			L_TAM			L_FCC			L_FM1			L_FM2			L_FM5			R_FTC			R_FLE			R_FME			R_FAX			R_TTC			R_FAL			R_TAM			R_FCC			R_FM1			R_FM2			R_FM5			CV7			TV10			SXS			SJN			L_SIA			L_SRS			L_SAA			L_SAE			L_HLE			L_HME			L_UOA			L_RSP			L_UHE			L_HM2			L_HM5			R_SIA			R_SRS			R_SAA			R_SAE			R_HLE			R_HME			R_UOA			R_RSP			R_UHE			R_HM2			R_HM5			
		X1	Y1	Z1	X2	Y2	Z2	X3	Y3	Z3	X4	Y4	Z4	X5	Y5	Z5	X6	Y6	Z6	X7	Y7	Z7	X8	Y8	Z8	X9	Y9	Z9	X10	Y10	Z10	X11	Y11	Z11	X12	Y12	Z12	X13	Y13	Z13	X14	Y14	Z14	X15	Y15	Z15	X16	Y16	Z16	X17	Y17	Z17	X18	Y18	Z18	X19	Y19	Z19	X20	Y20	Z20	X21	Y21	Z21	X22	Y22	Z22	X23	Y23	Z23	X24	Y24	Z24	X25	Y25	Z25	X26	Y26	Z26	X27	Y27	Z27	X28	Y28	Z28	X29	Y29	Z29	X30	Y30	Z30	X31	Y31	Z31	X32	Y32	Z32	X33	Y33	Z33	X34	Y34	Z34	X35	Y35	Z35	X36	Y36	Z36	X37	Y37	Z37	X38	Y38	Z38	X39	Y39	Z39	X40	Y40	Z40	X41	Y41	Z41	X42	Y42	Z42	X43	Y43	Z43	X44	Y44	Z44	X45	Y45	Z45	X46	Y46	Z46	X47	Y47	Z47	X48	Y48	Z48	X49	Y49	Z49	X50	Y50	Z50	X51	Y51	Z51	X52	Y52	Z52	

62	0.61	646.6054687500001	876.6489868164065	-291.5707397460938	445.7375488281251	888.526062011719	-249.7823791503907	443.8065185546876	891.1927490234377	-142.0622711181641	643.0732421875001	879.9510498046877	-80.74845123291017	598.0606079101564	791.0962524414065	-384.8475646972657	718.8403930664064	431.4825744628907	-328.5523376464844	727.7562866210939	431.5272216796876	-193.3969726562501	707.9047241210939	367.6151123046876	-329.9400329589844	766.9644775390626	372.3918762207032	-274.5901794433594	762.0949707031251	62.43092727661134	-291.0584716796876	777.1309814453127	72.77355194091798	-205.5790557861329	722.4746704101564	10.84592723846436	-235.9556884765626	892.6634521484377	40.69729614257813	-214.3929748535157	896.385192871094	53.99346923828126	-265.2167053222657	862.9483642578127	22.49846267700196	-309.7666015625001	555.0850219726564	786.099060058594	8.841296195983888	461.871551513672	433.6235961914064	-31.25267219543458	476.6710815429689	418.694061279297	-167.0994415283203	407.8850708007814	396.4229736328126	-27.02464103698731	469.6412963867189	354.2972106933594	-78.40413665771486	225.2164764404297	123.9003524780274	-59.10666656494142	251.6121215820313	128.0729217529297	-146.9804840087891	168.7784423828125	117.034896850586	-106.1243896484375	300.2378845214844	13.57408523559571	-162.4759368896485	319.3092651367188	30.79523277282716	-105.8213882446289	281.2802734375001	18.06224060058594	-52.43789672851564	512.2211914062501	1365.65673828125	-198.7318572998047	430.648651123047	1142.13916015625	-186.9053039550782	655.4533691406251	1043.178955078125	-201.395980834961	622.6807861328126	1272.32958984375	-204.0269470214844	417.3538513183595	1180.3896484375	-267.1601867675782	457.6741027832032	1294.364379882813	-281.7445373535157	495.2002868652345	1307.126098632813	-351.4169921875001	542.9913940429689	1304.451782226563	-370.8971252441407	422.668426513672	1027.151489257813	-421.1403198242189	393.713348388672	1024.6728515625	-342.5008544921876	383.0083618164063	1008.0224609375	-394.9580993652345	425.542938232422	790.7952880859377	-379.2281494140626	385.2688598632814	806.2581176757815	-436.6676330566407	414.1250610351564	712.2218627929689	-366.6478271484376	349.6725769042969	744.9028930664064	-429.0574951171876	429.4263000488282	1198.159790039063	-105.2617645263672	469.834686279297	1304.773193359375	-107.1026992797852	519.7758789062501	1312.306518554688	-41.98031234741212	571.9995727539064	1320.90771484375	-41.05986022949219	594.2592773437501	1027.928100585938	74.33084106445314	552.1196289062501	995.3411865234377	10.07303524017334	572.0518188476564	977.9976196289065	56.75521087646486	778.109802246094	892.1184082031252	26.34820175170899	731.0740356445314	852.044616699219	64.17404937744142	842.8467407226565	845.5928344726565	16.60908699035645	773.5647583007815	786.0710449218752	49.50463104248048	
63	0.62	659.6759643554689	877.3565063476565	-292.8231506347657	458.7316894531251	889.5650634765627	-250.6748809814454	457.1463928222657	891.2868652343752	-142.6643218994141	655.9463500976564	879.6799926757815	-82.50488281250001	611.5806884765626	792.9758300781252	-386.3860473632814	729.1837768554689	431.4604492187501	-329.7822570800782	739.2666625976564	432.2247009277345	-195.1393432617188	717.7536621093751	367.7469787597657	-331.0163879394532	776.2315673828127	371.6253051757813	-275.5587158203126	764.2718505859376	61.54091644287111	-291.0437622070313	779.2090454101565	71.4701385498047	-205.4135131835938	722.5593261718751	11.3447322845459	-236.1332244873047	894.0986328125002	35.53984832763673	-214.069808959961	898.7454833984377	48.82287216186525	-265.1161499023438	863.7534179687502	18.85655593872071	-310.5665588378907	568.9862060546876	785.029479980469	7.541911602020265	479.2976989746095	432.3190307617189	-30.76704406738282	494.7383422851564	416.5440063476564	-166.4561004638672	424.8000793457032	396.3547363281251	-26.48653221130372	486.1684875488282	352.6098632812501	-77.19940185546876	233.891830444336	130.3583679199219	-58.26761627197267	260.8326416015626	132.6333770751953	-145.7221832275391	178.1804504394532	126.9590682983399	-105.5678405761719	300.3582153320313	15.35279369354248	-162.6526031494141	320.2441101074219	31.27469062805176	-106.1812438964844	282.7852172851563	20.6123161315918	-52.6688575744629	525.1597290039064	1366.236572265625	-201.2045288085938	443.7945861816407	1142.643310546875	-188.8119506835938	668.6873779296876	1043.84765625	-202.6826782226563	635.6554565429689	1273.06103515625	-205.9405822753907	431.0966186523439	1180.595825195313	-269.6033020019532	470.965057373047	1294.666748046875	-284.3099365234376	508.9189453125001	1307.19482421875	-353.9261779785157	556.6410522460939	1304.563110351563	-373.1061096191407	438.398895263672	1026.466552734375	-423.7583312988282	408.372039794922	1024.1533203125	-345.5042114257813	398.4723510742189	1007.2587890625	-397.9344482421876	441.5926513671876	790.2897949218752	-381.0751953125001	402.1607666015626	805.4202270507815	-439.2280273437501	429.8474426269532	711.9674682617189	-367.8964843750001	366.3440551757813	744.0501708984376	-431.6334228515626	442.3814697265626	1198.738403320313	-107.4523162841797	482.5094604492189	1305.525512695313	-109.4930725097657	532.2847900390626	1313.359252929688	-44.32495880126954	584.5195922851564	1322.050659179688	-43.01406860351563	602.4252319335939	1028.703735351563	72.31532287597658	560.0775146484376	996.7851562500002	7.843868732452394	579.5114746093751	978.9949951171877	54.71660614013673	784.1185302734377	890.058532714844	24.66609382629395	736.5211791992189	850.5095825195315	62.503231048584	848.2427978515627	842.5831298828127	14.944486618042	778.0557250976565	783.8921508789065	47.55010986328126	
64	0.63	672.5084838867189	878.2656250000002	-294.1385803222657	471.4937438964845	890.723815917969	-251.3866577148438	470.3272094726564	891.346862792969	-143.0918121337891	668.6324462890626	879.4589843750002	-84.32956695556642	624.6784057617189	794.9792480468752	-387.9354553222657	738.9712524414064	431.4556274414064	-331.0812072753907	750.2546386718751	433.0125427246095	-196.8822326660157	727.1276245117189	367.9551086425782	-332.1483154296876	784.989685058594	370.9716186523438	-276.6064453125001	766.1594238281251	60.91452026367189	-290.9987487792969	780.9952392578127	70.52053070068361	-205.2261962890626	722.6323242187501	11.89908409118653	-236.3196716308594	895.219909667969	31.04804039001466	-213.660140991211	900.794860839844	44.40800476074219	-264.9591979980469	864.3734130859377	15.91796875	-311.4393920898438	583.0181274414064	783.7696533203127	6.215563774108888	497.6235656738282	430.7807922363282	-30.39472007751466	514.0103149414064	414.1160583496095	-165.9588623046875	442.7853393554689	396.0920715332032	-26.03327560424805	503.6527099609376	350.8342590332032	-76.13718414306642	243.6351928710938	137.2225036621094	-57.71485900878908	271.1056518554688	137.4593811035157	-144.7330932617188	188.8378448486328	137.3350372314453	-105.3883285522461	301.2826232910157	17.758451461792	-162.5633850097657	321.8477172851563	32.0630111694336	-106.3113403320313	284.9870910644532	24.02462387084962	-52.79325485229494	538.1146850585939	1366.948120117188	-203.552719116211	456.8666381835939	1143.314086914063	-190.6509399414063	681.7689208984376	1044.58447265625	-203.9224700927735	648.6326293945314	1273.868774414063	-207.7526092529297	444.8388977050782	1180.993408203125	-272.0045471191407	484.305877685547	1295.14794921875	-286.8040771484376	522.7831420898439	1307.40380859375	-356.3549804687501	570.4073486328126	1304.818603515625	-375.2006225585938	454.538543701172	1025.856323242188	-426.4476623535157	423.3997192382814	1023.6318359375	-348.5788269042969	414.356414794922	1006.493347167969	-401.0052795410157	458.3742980957032	789.8286132812502	-383.1612548828126	419.7721252441407	804.636901855469	-442.0055541992189	446.4203186035157	711.6816406250001	-369.5049743652344	383.8494873046876	743.1879882812501	-434.5263061523439	455.3289794921876	1199.520385742188	-109.5125885009766	495.2291564941407	1306.43408203125	-111.7644577026367	544.8821411132814	1314.5654296875	-46.55537796020509	597.2934570312501	1323.195434570313	-44.92382049560548	610.2738037109376	1029.549194335938	70.1891555786133	567.8394775390626	998.4331054687502	5.388781547546388	586.6095581054689	980.1290283203127	52.50367355346681	789.5178833007815	887.606872558594	23.15093231201172	741.1828613281251	848.7456665039065	60.97741699218751	852.8825683593752	838.952331542969	13.62815093994141	781.5725708007815	781.3804931640627	45.89983749389649	
65	0.64	685.0807495117189	879.352966308594	-295.5133972167969	484.0010375976564	891.9855957031252	-251.9431152343751	483.3033752441407	891.3838500976565	-143.3881530761719	681.1031494140626	879.299987792969	-86.17991638183595	637.2662353515626	797.026550292969	-389.4837036132814	748.1282348632814	431.4444274902345	-332.4241638183594	760.6530151367189	433.8355407714845	-198.5960998535157	735.8932495117189	368.1982727050782	-333.3156433105469	793.1788330078127	370.3995361328126	-277.7375488281251	767.7905273437501	60.52687454223634	-290.9280090332032	782.5324707031252	69.90561676025392	-205.0243072509766	722.7609863281251	12.46718502044678	-236.5075836181641	896.0926513671877	27.2948226928711	-213.178451538086	902.5691528320315	40.81753540039063	-264.7570190429688	864.8792724609377	13.70037651062012	-312.3391113281251	597.1149902343751	782.3758544921877	4.860682487487794	516.7709350585939	429.0861816406251	-30.16344451904298	534.4249267578126	411.4890441894532	-165.6324920654297	461.7869262695314	395.6871948242189	-25.68266105651856	522.0297241210939	349.0365600585938	-75.26332092285158	254.5012969970704	144.4415740966797	-57.46146774291994	282.4706115722657	142.5312042236328	-144.0361328125	200.7544403076172	147.9862518310547	-105.5974731445313	303.3602600097657	20.77567481994629	-162.1213531494141	324.4244995117188	33.2147331237793	-106.1130065917969	288.1688537597657	28.33105087280274	-52.7462615966797	551.0520629882814	1367.779052734375	-205.7424011230469	469.8266601562501	1144.141479492188	-192.4163055419922	694.6673583984376	1045.371337890625	-205.095443725586	661.5795898437501	1274.73876953125	-209.4353332519532	458.5296936035157	1181.579833984375	-274.3409423828126	497.6576538085939	1295.801879882813	-289.1989135742188	536.7411499023439	1307.754272460938	-358.6732788085938	584.2587890625001	1305.214599609375	-377.1504516601563	471.0411071777345	1025.330078125	-429.1791381835939	438.7690429687501	1023.098327636719	-351.6911315917969	430.6270141601564	1005.729187011719	-404.1333618164064	475.8771972656251	789.4199829101565	-385.4807434082032	438.070526123047	803.9223632812502	-444.9766845703126	463.8596191406251	711.3597412109376	-371.4845886230469	402.1785888671876	742.3225708007814	-437.7150268554689	468.2147827148439	1200.494873046875	-111.4338912963867	507.957733154297	1307.482788085938	-113.8955841064453	557.5201416015626	1315.897583007813	-48.64352035522462	610.2749023437501	1324.31396484375	-46.75900268554688	617.8104248046876	1030.446655273438	67.96153259277345	575.4251708984376	1000.257141113281	2.721884727478028	593.3707275390626	981.3861083984377	50.12098693847658	794.321960449219	884.7830810546877	21.81106758117676	745.0847778320314	846.7861938476565	59.59749603271486	856.7712402343752	834.7490844726565	12.65000820159912	784.1484375000002	778.590759277344	44.56375122070313	
